<?xml version="1.0" encoding="iso-8859-1"?>
<!-- Generator: Adobe Illustrator 22.1.0, SVG Export Plug-In . SVG Version: 6.00 Build 0)  -->
<svg version="1.1" xmlns="http://www.w3.org/2000/svg" xmlns:xlink="http://www.w3.org/1999/xlink" x="0px" y="0px"
	 viewBox="0 0 476.832 174.519" style="enable-background:new 0 0 476.832 174.519;" xml:space="preserve">
<g id="UberEats-Logo-Black_x26_White-H">
</g>
<g id="UberEats-Logo-Black_x26_White-V">
</g>
<g id="UberEats-Logo-TwoColor-White-H_1_">
</g>
<g id="UberEats-Logo-TwoColor-White-V">
</g>
<g id="UberEats-Logo-Black-H">
</g>
<g id="UberEats-Logo-Black-V">
</g>
<g id="UberEats-Logo-White-H">
</g>
<g id="UberEats-Logo-White-V">
</g>
<g id="UberEats-Logo-TwoColor-Black-H">
	<g>
		<rect x="0" y="0" style="fill:none;" width="476.832" height="174.519"/>
		<g>
			<path style="fill:#5FB709;" d="M248.138,58.173h40.87v9.944h-29.832v14.22h29.037v9.646h-29.037v14.419h29.832v9.944h-40.87
				V58.173z M400.064,117.44c12.53,0,19.59-5.966,19.59-14.22c0-5.867-4.177-10.242-12.927-12.132l-9.248-1.889
				c-5.37-0.994-7.06-1.989-7.06-3.978c0-2.585,2.585-4.177,7.359-4.177c5.171,0,8.95,1.392,10.044,6.165h10.839
				c-0.597-8.95-7.06-14.916-20.187-14.916c-11.336,0-19.292,4.674-19.292,13.723c0,6.265,4.375,10.342,13.822,12.331l10.342,2.387
				c4.077,0.796,5.171,1.889,5.171,3.58c0,2.685-3.083,4.375-8.055,4.375c-6.265,0-9.845-1.392-11.237-6.165h-10.939
				C379.877,111.474,386.54,117.44,400.064,117.44z M375.355,106.601h-8.154c-2.486,0-4.077-1.094-4.077-3.381V83.133h12.231v-9.745
				h-12.231V61.156h-10.939v12.231h-8.254v9.745h8.254v22.871c0,5.768,4.077,10.342,11.436,10.342h11.734V106.601z M339.314,73.388
				v42.959h-10.839v-3.878c-3.779,3.182-8.552,4.972-13.723,4.972c-12.828,0-22.871-10.044-22.871-22.573
				c0-12.53,10.044-22.573,22.871-22.573c5.171,0,9.944,1.79,13.723,4.972v-3.878H339.314z M328.674,94.867
				c0-7.359-5.768-13.126-13.027-13.126c-7.16,0-13.027,5.768-13.027,13.126s5.867,13.126,13.027,13.126
				C322.906,107.993,328.674,102.225,328.674,94.867z"/>
			<path d="M81.192,109.529c8.061,0,14.293-6.233,14.293-15.457v-35.9h8.726v58.17h-8.643v-5.402
				c-3.906,4.072-9.307,6.399-15.373,6.399c-12.465,0-22.022-9.058-22.022-22.769V58.173h8.726v35.9
				C66.899,103.463,73.048,109.529,81.192,109.529 M110.692,116.343h8.31v-5.318c3.823,3.906,9.224,6.316,15.124,6.316
				c12.465,0,22.271-9.889,22.271-22.105c0-12.299-9.806-22.188-22.271-22.188c-5.9,0-11.218,2.41-15.041,6.316V58.173h-8.393
				V116.343z M133.545,109.945c-8.144,0-14.626-6.565-14.626-14.709c0-8.227,6.565-14.709,14.626-14.709
				c7.978,0,14.542,6.482,14.542,14.709C148.087,103.38,141.523,109.945,133.545,109.945 M181.493,73.131
				c-12.382,0-21.772,10.055-21.772,22.021c0,12.631,9.806,22.105,22.52,22.105c7.728,0,14.044-3.407,18.282-9.058l-6.067-4.488
				c-3.158,4.238-7.313,6.233-12.215,6.233c-7.147,0-12.881-5.152-14.044-12.05h34.487v-2.743
				C202.684,82.521,193.709,73.131,181.493,73.131 M168.364,91.247c1.496-6.482,6.731-10.803,12.963-10.803
				c6.233,0,11.468,4.321,12.881,10.803H168.364 M228.694,81.441V73.63h-2.908c-4.654,0-8.06,2.16-10.138,5.568v-5.236h-8.31v42.381
				h8.393V92.244c0-6.565,3.989-10.803,9.473-10.803H228.694z"/>
		</g>
	</g>
</g>
<g id="UberEats-Logo-TwoColor-Black-V">
</g>
<g id="nyt_x5F_exporter_x5F_info" style="display:none;">
</g>
</svg>
